<svg height="126mm" viewBox="0 0 210 126" width="210mm" xmlns="http://www.w3.org/2000/svg"><g fill="#c3c3c3"><rect height="32.508484" ry="2.827153" width="67.688911" x="58.676086" y=".107806"/><rect height="25.155331" rx="1.413577" width="25.155331" x="142.93015" y="52.588161"/><text font-family="sans-serif" font-size="29.3658" stroke-width=".140214" x="113.91733" y="68.78775"><tspan fill="#c3c3c3" stroke-width=".140214" x="113.91733" y="68.78775">...</tspan></text><path d="m33.312862 97.7345h28.320574l-13.983487 24.22012z"/><path d="m68.630287 97.7345h28.320574l-13.983499 24.22012z"/><path d="m126.43758 97.7345h28.32053l-13.98345 24.22012z"/><text font-family="sans-serif" font-size="29.3658" stroke-width=".140214" x="97.56192" y="110.93547"><tspan fill="#c3c3c3" stroke-width=".140214" x="97.56192" y="110.93547">...</tspan></text></g><path d="m76.790772 30.413645-43.30086 23.490519" fill="none" stroke="#c3c3c3" stroke-width="2.049"/><path d="m87.449412 30.413645-21.317316 23.490519" fill="none" stroke="#c3c3c3" stroke-width="2.049"/><path d="m98.108106 30.413645 4.663154 23.490519" fill="none" stroke="#c3c3c3" stroke-width="2.049"/><path d="m108.44565 30.402605 47.85224 23.836989" fill="none" stroke="#c3c3c3" stroke-width="2.049"/><path d="m32.813092 75.91096 15.159834 24.6556 20.324173-24.155794" fill="none" stroke="#c3c3c3" stroke-width="2.049"/><path d="m101.78203 74.753991-18.991462 24.146639" fill="none" stroke="#c3c3c3" stroke-width="2.049"/><path d="m156.42404 74.379638-16.32597 24.333817" fill="none" stroke="#c3c3c3" stroke-width="2.049"/><rect fill="#c3c3c3" height="25.155331" rx="1.413577" width="25.155331" x="88.743019" y="52.588161"/><rect fill="#c3c3c3" height="25.155331" rx="1.413577" width="25.155331" x="53.639221" y="52.588161"/><rect fill="#c3c3c3" height="25.155331" rx="1.413577" width="25.155331" x="19.47777" y="52.588161"/><path d="m174.69529 124.70674c3.41613 0 5.36289.52178 5.36289-3.09622v-11.57829c0-3.18053 2.35596-6.03556 6.03561-6.03556m-11.3985-102.6426026c3.41613 0 5.36289-.52177797 5.36289 3.0962764v93.5107472c0 3.180529 2.35596 6.035579 6.03561 6.035579" fill="none" stroke="#000" stroke-width="1.149"/><path d="m197.68491 78.72746c3.41617 0 5.36295.521777 5.36295-3.096277v-29.570146c0-3.18053 2.35594-6.035574 6.03555-6.035574m-11.3985-38.6713956c3.41617 0 5.36295-.52177797 5.36295 3.0962764v29.5394972c0 3.180591 2.35594 6.035622 6.03555 6.035622" fill="none" stroke="#000" stroke-width="1.149"/><path d="m12.060048 52.835482c-3.4161425 0-5.3629114-.521778-5.3629114 3.096276v3.412381c0 3.180579-2.3559534 6.035623-6.03559614 6.035623m11.39850754 12.300389c-3.4161425 0-5.3629114.521778-5.3629114-3.096228v-3.16854c0-3.180591-2.3559534-6.035621-6.03559614-6.035621" fill="none" stroke="#000" stroke-width="1.149"/><path d="m12.060048 97.586742c-3.4161425 0-5.3629114-.521781-5.3629114 3.096268v3.41236c0 3.1806-2.3559534 6.03564-6.03559614 6.03564m11.39850754 12.30039c-3.4161425 0-5.3629114.52177-5.3629114-3.09627v-3.16861c0-3.18053-2.3559534-6.03551-6.03559614-6.03551" fill="none" stroke="#000" stroke-width="1.149"/></svg>