<svg height="100" viewBox="0 0 415 100" width="415" xmlns="http://www.w3.org/2000/svg" xmlns:xlink="http://www.w3.org/1999/xlink"><clipPath id="a"><path d="m92.668 340.276h231.094v55.129h-231.094z"/></clipPath><g fill="#231f20" transform="matrix(1.7825869 0 0 -1.7825869 -163.51717 706.13009)"><path d="m0 0-19.235-47.762h12.577l3.593 9.474h21.342l3.919-9.474h12.845l-21.229 47.762zm7.088-11.399 7.702-18.565h-14.705z" transform="translate(111.9024 391.6971)"/><path d="m0 0h10.374v-47.762h-11.896v29.859l-12.894-14.992h-1.831l-12.865 14.992v-29.859h-11.916v47.762h10.355l15.357-17.702z" transform="translate(193.4789 391.6972)"/><g clip-path="url(#a)"><path d="m0 0h7.778c11.984 0 15.537 8.151 15.537 15.116 0 8.209-4.396 15.135-15.709 15.135h-7.606zm9.167 38.997c17.433 0 26.401-10.834 26.401-23.939 0-13.726-8.68-23.823-27.743-23.823h-19.737v47.762z" transform="translate(224.8565 352.7003)"/><path d="m0 0h-24.628l-15.019 15.011h54.658v-54.65l-15.011 15.002z" transform="translate(308.7506 380.3937)"/><path d="m0 0v21.649l-15.481-15.47v-21.64h21.639l15.461 15.461z" transform="translate(284.1231 355.7367)"/></g></g><g fill="#fff" stroke-width=".278711"><path d="m1.9509738 92.832362c0-.0682 1.5573471-3.989006 3.4607714-8.712902 1.9034241-4.723895 5.8613118-14.54634 8.7953068-21.827653 2.933994-7.281313 9.055582-22.489742 13.603527-33.796508l8.268991-20.5577564 12.215934.072532 12.21593.072532 18.79734 42.2948324c10.338534 23.262158 18.797337 42.357314 18.797337 42.43368 0 .07637-5.054842.138848-11.232982.138848h-11.232983l-3.484837-8.430994-3.484835-8.430993-19.120416-.07159-19.120413-.07159-.71652 1.883208c-.394086 1.035766-1.8355 4.830575-3.203145 8.432908l-2.486626 6.549698-11.03619.07288c-6.0699047.040076-11.0361902.017068-11.0361902-.051132zm60.4801882-31.509955c0-.115367-4.70726-11.511498-11.551978-27.966981-1.104502-2.655356-2.124-4.831806-2.265546-4.836557-.271155-.0091-.512039.606227-7.765762 19.83741-2.515131 6.66815-4.658664 12.343394-4.763409 12.611652-.179751.460355.554648.487744 13.078125.487744 7.297715 0 13.26857-.05997 13.26857-.133268z"/><path d="m108.4184 50.442801v-42.5071673l9.11893.073486 9.11893.073486 13.52801 15.5851343c7.44041 8.571823 13.65812 15.628501 13.81713 15.681506.15902.05301 1.28703-1.061761 2.50669-2.47726 3.04959-3.539258 16.05651-18.578654 20.98172-24.260334l4.04683-4.6684016h9.14941 9.14941v42.5033576 42.503358h-10.45165-10.45164v-26.461052c0-14.553579-.0966-26.52076-.21468-26.593732-.11807-.07297-5.35434 5.845708-11.63616 13.152624l-11.42149 13.285303-1.54215.08178-1.54214.08178-11.55725-13.459891-11.55725-13.459888-.0711 26.686535-.0711 26.686534h-10.4502-10.45025z"/><path d="m216.27938 50.466687v-42.5234365l19.44006.00632c24.13268.00785 27.48941.2353931 34.9085 2.3663405 15.3926 4.421141 25.65471 15.338833 29.0485 30.904243.53327 2.445771.61534 3.677435.62409 9.365806.0112 7.259049-.38691 10.180175-2.06312 15.139046-4.43349 13.115993-14.99729 21.984931-30.2649 25.409177-6.95665 1.560249-7.79077 1.607613-30.5808 1.73652l-21.11233.119419zm41.87306 26.504626c10.35321-2.005025 16.99594-7.975718 19.69015-17.698112 1.81638-6.554605 1.36358-15.169746-1.10951-21.1104-2.52792-6.072333-7.52397-10.76102-13.81557-12.965616-4.05597-1.421225-6.37054-1.682351-16.32836-1.842131l-9.40648-.150934v27.240496 27.240497l9.40648-.148054c6.66917-.104971 10.03412-.269605 11.56329-.565746z"/><path d="m400.15757 84.93596-13.30733-13.309505v-21.808024-21.808021h-21.81021-21.8102l-13.23655-13.238751-13.23655-13.238751h48.42486 48.42486v48.356279c0 26.595954-.0319 48.35628-.0708 48.35628s-6.05907-5.989278-13.37811-13.309507z"/><path d="m315.50034 80.197892v-19.162416l13.65681-13.654684 13.65682-13.654683v19.160283 19.160284h19.16028 19.16029l-13.65469 13.656816-13.65468 13.656817h-19.16242-19.16241z"/></g></svg>