<svg height="83.38166" viewBox="0 0 234.57703 83.38166" width="234.57703" xmlns="http://www.w3.org/2000/svg"><rect height="83.38166" ry="10.344823" stroke-width=".950052" width="184.21065"/><rect height="64.579514" ry="8.129945" stroke-width=".910064" width="42.364159" x="191.69626" y="6.011598"/><g fill="#fff"><path d="m191.69623 27.19368h42.880798v3.616453h-42.880798z"/><path d="m211.84503 5.494964h3.616453v21.698715h-3.616453z" stroke-width=".826874"/><path d="m33.125546 57.915173h117.1403v17.56563h-117.1403z" stroke-width=".965957"/><rect height="17.565628" ry=".000004" width="29.964886" x="145.31743" y="33.19368"/><rect height="17.565628" ry=".000004" width="29.964886" x="8.129562" y="33.193676"/><rect height="17.565628" ry=".000004" stroke-width=".765641" width="17.565619" x="8.024372" y="57.915173"/><rect height="17.565628" ry=".000004" stroke-width=".765641" width="17.565619" x="157.54308" y="57.656857"/><rect height="17.565628" ry=".000004" stroke-width=".765641" width="17.565619" x="46.102318" y="33.19368"/><rect height="17.565628" ry=".000004" stroke-width=".765641" width="17.565619" x="71.159164" y="33.19368"/><rect height="17.565628" ry=".000004" stroke-width=".765641" width="17.565619" x="95.957687" y="33.19368"/><rect height="17.565628" ry=".000004" stroke-width=".765641" width="17.565619" x="120.75626" y="33.193676"/><rect height="17.565628" ry=".000004" stroke-width=".765641" width="17.565619" x="8.090748" y="7.819873"/><rect height="17.565628" ry=".000004" stroke-width=".765641" width="17.565619" x="33.662933" y="7.819873"/><rect height="17.565628" ry=".000004" stroke-width=".765641" width="17.565619" x="58.504482" y="7.819873"/><rect height="17.565628" ry=".000004" stroke-width=".765641" width="17.565619" x="83.711365" y="7.819871"/><rect height="17.565628" ry=".000004" stroke-width=".765641" width="17.565619" x="108.55289" y="7.819871"/><rect height="17.565628" ry=".000004" stroke-width=".765641" width="17.565619" x="133.39444" y="7.454555"/><rect height="17.565628" ry=".000004" stroke-width=".765641" width="17.565619" x="158.23599" y="7.089236"/></g></svg>