<svg height="22.5" viewBox="0 0 5.8208332 5.9531251" width="22" xmlns="http://www.w3.org/2000/svg"><path d="m7.1933565 4.2161952a2.9411273 2.9588449 0 0 1 -2.9358783 2.9629852 2.9411273 2.9588449 0 0 1 -2.9463665-2.9524298 2.9411273 2.9588449 0 0 1 2.9336225-2.9652456 2.9411273 2.9588449 0 0 1 2.9486125 2.9501596l-2.9411146.00868z" fill="#b3b3b3" fill-rule="evenodd" stroke-width=".264583" transform="matrix(-.79577884 0 0 .78850687 6.84335 -.841573)"/><path d="m-3.769284-4.603346h2.24154v.834061h-2.24154z" fill="#b3b3b3" stroke-width=".330272" transform="matrix(.7031697 -.71102206 -.7031697 -.71102206 0 0)"/><path d="m-1.5091094 2.4834796a1.9504057 1.9442246 0 0 1 -1.9469316 1.9469363 1.9504057 1.9442246 0 0 1 -1.9538733-1.9400138 1.9504057 1.9442246 0 0 1 1.9454312-1.94842601 1.9504057 1.9442246 0 0 1 1.9553672 1.93851761l-1.9503973.0057z" fill="#fff" stroke-width=".288261" transform="scale(-1 1)"/><g fill="#b3b3b3" stroke-width=".264583"><path d="m-1.4074227-3.0219567-.8393933.484624v-.969248z" transform="matrix(-1.8436671 0 0 -1.6647314 -1.085709 -2.552679)"/><path d="m-1.4074227-3.0219567-.8393933.484624v-.969248z" transform="matrix(1.8436671 0 0 1.6647314 7.994447 7.508696)"/></g></svg>