<svg height="22.5" viewBox="0 0 5.8208332 5.9531251" width="22" xmlns="http://www.w3.org/2000/svg"><path d="m7.1933565 4.2161952a2.9411273 2.9588449 0 0 1 -2.9358783 2.9629852 2.9411273 2.9588449 0 0 1 -2.9463665-2.9524298 2.9411273 2.9588449 0 0 1 2.9336225-2.9652456 2.9411273 2.9588449 0 0 1 2.9486125 2.9501596l-2.9411146.00868z" fill="#b3b3b3" fill-rule="evenodd" stroke-width=".264583" transform="matrix(-.79577889 0 0 .78850686 6.84335 -.841573)"/><path d="m-3.769284-4.603346h2.241541v.834061h-2.241541z" fill="#b3b3b3" stroke-width=".330271" transform="matrix(.70316972 -.71102205 -.70316972 -.71102205 0 0)"/><path d="m-1.5091095 2.4834799a1.9504058 1.9442246 0 0 1 -1.9469317 1.9469362 1.9504058 1.9442246 0 0 1 -1.9538735-1.9400138 1.9504058 1.9442246 0 0 1 1.9454313-1.94842597 1.9504058 1.9442246 0 0 1 1.9553674 1.93851757l-1.9503974.0057z" fill="#fff" stroke-width=".288261" transform="scale(-1 1)"/><rect fill="#ccc" height="2.706416" ry=".037187" stroke-width=".135821" width="2.856202" x="2.013997" y="1.140521"/></svg>