<svg height="22.5" viewBox="0 0 5.8208332 5.9531251" width="22" xmlns="http://www.w3.org/2000/svg"><path d="m7.1933565 4.2161952a2.9411273 2.9588449 0 0 1 -2.9358783 2.9629852 2.9411273 2.9588449 0 0 1 -2.9463665-2.9524298 2.9411273 2.9588449 0 0 1 2.9336225-2.9652456 2.9411273 2.9588449 0 0 1 2.9486125 2.9501596l-2.9411146.00868z" fill="#484c55" fill-rule="evenodd" stroke-width=".264583" transform="matrix(-.79577882 0 0 .78850679 6.843349 -.841572)"/><path d="m-3.769285-4.603346h2.24154v.834061h-2.24154z" fill="#484c55" stroke-width=".330271" transform="matrix(.70316972 -.71102204 -.70316972 -.71102204 0 0)"/><path d="m-1.5091091 2.4834799a1.9504057 1.9442245 0 0 1 -1.9469316 1.9469361 1.9504057 1.9442245 0 0 1 -1.9538734-1.9400137 1.9504057 1.9442245 0 0 1 1.9454312-1.94842585 1.9504057 1.9442245 0 0 1 1.9553673 1.93851745l-1.9503973.0057z" fill="#fff" stroke-width=".288261" transform="scale(-1 1)"/><rect fill="#999" height="2.706416" ry=".037187" stroke-width=".135821" width="2.856202" x="2.013997" y="1.140521"/></svg>